<svg width="566" height="126" viewBox="0 0 566 126" fill="none" xmlns="http://www.w3.org/2000/svg">
<g filter="url(#filter0_d_739_51)">
<path d="M13.5662 12.3318C14.3503 5.51795 20.119 0.375 26.9777 0.375H45.7325C53.7998 0.375 60.0662 7.40386 59.144 15.4182L48.1838 110.668C47.3997 117.482 41.631 122.625 34.7723 122.625H16.0175C7.95023 122.625 1.6838 115.596 2.606 107.582L13.5662 12.3318Z" fill="#F9F9F9"/>
</g>
<g filter="url(#filter1_d_739_51)">
<path d="M59.3162 12.3318C60.1003 5.51795 65.869 0.375 72.7277 0.375H91.4825C99.5498 0.375 105.816 7.40386 104.894 15.4182L93.9338 110.668C93.1497 117.482 87.381 122.625 80.5223 122.625H61.7675C53.7002 122.625 47.4338 115.596 48.356 107.582L59.3162 12.3318Z" fill="#ACDEDE"/>
</g>
<g filter="url(#filter2_d_739_51)">
<path d="M105.066 12.3318C105.85 5.51795 111.619 0.375 118.478 0.375H137.233C145.3 0.375 151.566 7.40386 150.644 15.4182L139.684 110.668C138.9 117.482 133.131 122.625 126.272 122.625H107.517C99.4502 122.625 93.1838 115.596 94.106 107.582L105.066 12.3318Z" fill="#F9F9F9"/>
</g>
<g filter="url(#filter3_d_739_51)">
<path d="M150.816 12.3318C151.6 5.51795 157.369 0.375 164.228 0.375H182.983C191.05 0.375 197.316 7.40386 196.394 15.4182L185.434 110.668C184.65 117.482 178.881 122.625 172.022 122.625H153.267C145.2 122.625 138.934 115.596 139.856 107.582L150.816 12.3318Z" fill="#ACDEDE"/>
</g>
<g filter="url(#filter4_d_739_51)">
<path d="M196.566 12.3318C197.35 5.51795 203.119 0.375 209.978 0.375H228.733C236.8 0.375 243.066 7.40386 242.144 15.4182L231.184 110.668C230.4 117.482 224.631 122.625 217.772 122.625H199.017C190.95 122.625 184.684 115.596 185.606 107.582L196.566 12.3318Z" fill="#F9F9F9"/>
</g>
<g filter="url(#filter5_d_739_51)">
<path d="M242.316 12.3318C243.1 5.51795 248.869 0.375 255.728 0.375H274.483C282.55 0.375 288.816 7.40386 287.894 15.4182L276.934 110.668C276.15 117.482 270.381 122.625 263.522 122.625H244.767C236.7 122.625 230.434 115.596 231.356 107.582L242.316 12.3318Z" fill="#ACDEDE"/>
</g>
<g filter="url(#filter6_d_739_51)">
<path d="M288.066 12.3318C288.85 5.51795 294.619 0.375 301.478 0.375H320.233C328.3 0.375 334.566 7.40386 333.644 15.4182L322.684 110.668C321.9 117.482 316.131 122.625 309.272 122.625H290.517C282.45 122.625 276.184 115.596 277.106 107.582L288.066 12.3318Z" fill="#F9F9F9"/>
</g>
<g filter="url(#filter7_d_739_51)">
<path d="M333.816 12.3318C334.6 5.51795 340.369 0.375 347.228 0.375H365.983C374.05 0.375 380.316 7.40386 379.394 15.4182L368.434 110.668C367.65 117.482 361.881 122.625 355.022 122.625H336.267C328.2 122.625 321.934 115.596 322.856 107.582L333.816 12.3318Z" fill="#ACDEDE"/>
</g>
<g filter="url(#filter8_d_739_51)">
<path d="M379.566 12.3318C380.35 5.51795 386.119 0.375 392.978 0.375H411.733C419.8 0.375 426.066 7.40386 425.144 15.4182L414.184 110.668C413.4 117.482 407.631 122.625 400.772 122.625H382.017C373.95 122.625 367.684 115.596 368.606 107.582L379.566 12.3318Z" fill="#F9F9F9"/>
</g>
<g filter="url(#filter9_d_739_51)">
<path d="M425.316 12.3318C426.1 5.51795 431.869 0.375 438.728 0.375H457.483C465.55 0.375 471.816 7.40386 470.894 15.4182L459.934 110.668C459.15 117.482 453.381 122.625 446.522 122.625H427.767C419.7 122.625 413.434 115.596 414.356 107.582L425.316 12.3318Z" fill="#ACDEDE"/>
</g>
<g filter="url(#filter10_d_739_51)">
<path d="M471.066 12.3318C471.85 5.51795 477.619 0.375 484.478 0.375H503.233C511.3 0.375 517.566 7.40386 516.644 15.4182L505.684 110.668C504.9 117.482 499.131 122.625 492.272 122.625H473.517C465.45 122.625 459.184 115.596 460.106 107.582L471.066 12.3318Z" fill="#F9F9F9"/>
</g>
<g filter="url(#filter11_d_739_51)">
<path d="M516.816 12.3318C517.6 5.51795 523.369 0.375 530.228 0.375H548.983C557.05 0.375 563.316 7.40386 562.394 15.4182L551.434 110.668C550.65 117.482 544.881 122.625 538.022 122.625H519.267C511.2 122.625 504.934 115.596 505.856 107.582L516.816 12.3318Z" fill="#ACDEDE"/>
</g>
<defs>
<filter id="filter0_d_739_51" x="2.51578" y="0.375" width="59.7184" height="125.25" filterUnits="userSpaceOnUse" color-interpolation-filters="sRGB">
<feFlood flood-opacity="0" result="BackgroundImageFix"/>
<feColorMatrix in="SourceAlpha" type="matrix" values="0 0 0 0 0 0 0 0 0 0 0 0 0 0 0 0 0 0 127 0" result="hardAlpha"/>
<feOffset dx="3" dy="3"/>
<feComposite in2="hardAlpha" operator="out"/>
<feColorMatrix type="matrix" values="0 0 0 0 0 0 0 0 0 0 0 0 0 0 0 0 0 0 0.16 0"/>
<feBlend mode="normal" in2="BackgroundImageFix" result="effect1_dropShadow_739_51"/>
<feBlend mode="normal" in="SourceGraphic" in2="effect1_dropShadow_739_51" result="shape"/>
</filter>
<filter id="filter1_d_739_51" x="48.2658" y="0.375" width="59.7184" height="125.25" filterUnits="userSpaceOnUse" color-interpolation-filters="sRGB">
<feFlood flood-opacity="0" result="BackgroundImageFix"/>
<feColorMatrix in="SourceAlpha" type="matrix" values="0 0 0 0 0 0 0 0 0 0 0 0 0 0 0 0 0 0 127 0" result="hardAlpha"/>
<feOffset dx="3" dy="3"/>
<feComposite in2="hardAlpha" operator="out"/>
<feColorMatrix type="matrix" values="0 0 0 0 0 0 0 0 0 0 0 0 0 0 0 0 0 0 0.16 0"/>
<feBlend mode="normal" in2="BackgroundImageFix" result="effect1_dropShadow_739_51"/>
<feBlend mode="normal" in="SourceGraphic" in2="effect1_dropShadow_739_51" result="shape"/>
</filter>
<filter id="filter2_d_739_51" x="94.0158" y="0.375" width="59.7184" height="125.25" filterUnits="userSpaceOnUse" color-interpolation-filters="sRGB">
<feFlood flood-opacity="0" result="BackgroundImageFix"/>
<feColorMatrix in="SourceAlpha" type="matrix" values="0 0 0 0 0 0 0 0 0 0 0 0 0 0 0 0 0 0 127 0" result="hardAlpha"/>
<feOffset dx="3" dy="3"/>
<feComposite in2="hardAlpha" operator="out"/>
<feColorMatrix type="matrix" values="0 0 0 0 0 0 0 0 0 0 0 0 0 0 0 0 0 0 0.16 0"/>
<feBlend mode="normal" in2="BackgroundImageFix" result="effect1_dropShadow_739_51"/>
<feBlend mode="normal" in="SourceGraphic" in2="effect1_dropShadow_739_51" result="shape"/>
</filter>
<filter id="filter3_d_739_51" x="139.766" y="0.375" width="59.7184" height="125.25" filterUnits="userSpaceOnUse" color-interpolation-filters="sRGB">
<feFlood flood-opacity="0" result="BackgroundImageFix"/>
<feColorMatrix in="SourceAlpha" type="matrix" values="0 0 0 0 0 0 0 0 0 0 0 0 0 0 0 0 0 0 127 0" result="hardAlpha"/>
<feOffset dx="3" dy="3"/>
<feComposite in2="hardAlpha" operator="out"/>
<feColorMatrix type="matrix" values="0 0 0 0 0 0 0 0 0 0 0 0 0 0 0 0 0 0 0.16 0"/>
<feBlend mode="normal" in2="BackgroundImageFix" result="effect1_dropShadow_739_51"/>
<feBlend mode="normal" in="SourceGraphic" in2="effect1_dropShadow_739_51" result="shape"/>
</filter>
<filter id="filter4_d_739_51" x="185.516" y="0.375" width="59.7184" height="125.25" filterUnits="userSpaceOnUse" color-interpolation-filters="sRGB">
<feFlood flood-opacity="0" result="BackgroundImageFix"/>
<feColorMatrix in="SourceAlpha" type="matrix" values="0 0 0 0 0 0 0 0 0 0 0 0 0 0 0 0 0 0 127 0" result="hardAlpha"/>
<feOffset dx="3" dy="3"/>
<feComposite in2="hardAlpha" operator="out"/>
<feColorMatrix type="matrix" values="0 0 0 0 0 0 0 0 0 0 0 0 0 0 0 0 0 0 0.16 0"/>
<feBlend mode="normal" in2="BackgroundImageFix" result="effect1_dropShadow_739_51"/>
<feBlend mode="normal" in="SourceGraphic" in2="effect1_dropShadow_739_51" result="shape"/>
</filter>
<filter id="filter5_d_739_51" x="231.266" y="0.375" width="59.7184" height="125.25" filterUnits="userSpaceOnUse" color-interpolation-filters="sRGB">
<feFlood flood-opacity="0" result="BackgroundImageFix"/>
<feColorMatrix in="SourceAlpha" type="matrix" values="0 0 0 0 0 0 0 0 0 0 0 0 0 0 0 0 0 0 127 0" result="hardAlpha"/>
<feOffset dx="3" dy="3"/>
<feComposite in2="hardAlpha" operator="out"/>
<feColorMatrix type="matrix" values="0 0 0 0 0 0 0 0 0 0 0 0 0 0 0 0 0 0 0.16 0"/>
<feBlend mode="normal" in2="BackgroundImageFix" result="effect1_dropShadow_739_51"/>
<feBlend mode="normal" in="SourceGraphic" in2="effect1_dropShadow_739_51" result="shape"/>
</filter>
<filter id="filter6_d_739_51" x="277.016" y="0.375" width="59.7184" height="125.25" filterUnits="userSpaceOnUse" color-interpolation-filters="sRGB">
<feFlood flood-opacity="0" result="BackgroundImageFix"/>
<feColorMatrix in="SourceAlpha" type="matrix" values="0 0 0 0 0 0 0 0 0 0 0 0 0 0 0 0 0 0 127 0" result="hardAlpha"/>
<feOffset dx="3" dy="3"/>
<feComposite in2="hardAlpha" operator="out"/>
<feColorMatrix type="matrix" values="0 0 0 0 0 0 0 0 0 0 0 0 0 0 0 0 0 0 0.16 0"/>
<feBlend mode="normal" in2="BackgroundImageFix" result="effect1_dropShadow_739_51"/>
<feBlend mode="normal" in="SourceGraphic" in2="effect1_dropShadow_739_51" result="shape"/>
</filter>
<filter id="filter7_d_739_51" x="322.766" y="0.375" width="59.7184" height="125.25" filterUnits="userSpaceOnUse" color-interpolation-filters="sRGB">
<feFlood flood-opacity="0" result="BackgroundImageFix"/>
<feColorMatrix in="SourceAlpha" type="matrix" values="0 0 0 0 0 0 0 0 0 0 0 0 0 0 0 0 0 0 127 0" result="hardAlpha"/>
<feOffset dx="3" dy="3"/>
<feComposite in2="hardAlpha" operator="out"/>
<feColorMatrix type="matrix" values="0 0 0 0 0 0 0 0 0 0 0 0 0 0 0 0 0 0 0.16 0"/>
<feBlend mode="normal" in2="BackgroundImageFix" result="effect1_dropShadow_739_51"/>
<feBlend mode="normal" in="SourceGraphic" in2="effect1_dropShadow_739_51" result="shape"/>
</filter>
<filter id="filter8_d_739_51" x="368.516" y="0.375" width="59.7184" height="125.25" filterUnits="userSpaceOnUse" color-interpolation-filters="sRGB">
<feFlood flood-opacity="0" result="BackgroundImageFix"/>
<feColorMatrix in="SourceAlpha" type="matrix" values="0 0 0 0 0 0 0 0 0 0 0 0 0 0 0 0 0 0 127 0" result="hardAlpha"/>
<feOffset dx="3" dy="3"/>
<feComposite in2="hardAlpha" operator="out"/>
<feColorMatrix type="matrix" values="0 0 0 0 0 0 0 0 0 0 0 0 0 0 0 0 0 0 0.16 0"/>
<feBlend mode="normal" in2="BackgroundImageFix" result="effect1_dropShadow_739_51"/>
<feBlend mode="normal" in="SourceGraphic" in2="effect1_dropShadow_739_51" result="shape"/>
</filter>
<filter id="filter9_d_739_51" x="414.266" y="0.375" width="59.7184" height="125.25" filterUnits="userSpaceOnUse" color-interpolation-filters="sRGB">
<feFlood flood-opacity="0" result="BackgroundImageFix"/>
<feColorMatrix in="SourceAlpha" type="matrix" values="0 0 0 0 0 0 0 0 0 0 0 0 0 0 0 0 0 0 127 0" result="hardAlpha"/>
<feOffset dx="3" dy="3"/>
<feComposite in2="hardAlpha" operator="out"/>
<feColorMatrix type="matrix" values="0 0 0 0 0 0 0 0 0 0 0 0 0 0 0 0 0 0 0.16 0"/>
<feBlend mode="normal" in2="BackgroundImageFix" result="effect1_dropShadow_739_51"/>
<feBlend mode="normal" in="SourceGraphic" in2="effect1_dropShadow_739_51" result="shape"/>
</filter>
<filter id="filter10_d_739_51" x="460.016" y="0.375" width="59.7184" height="125.25" filterUnits="userSpaceOnUse" color-interpolation-filters="sRGB">
<feFlood flood-opacity="0" result="BackgroundImageFix"/>
<feColorMatrix in="SourceAlpha" type="matrix" values="0 0 0 0 0 0 0 0 0 0 0 0 0 0 0 0 0 0 127 0" result="hardAlpha"/>
<feOffset dx="3" dy="3"/>
<feComposite in2="hardAlpha" operator="out"/>
<feColorMatrix type="matrix" values="0 0 0 0 0 0 0 0 0 0 0 0 0 0 0 0 0 0 0.16 0"/>
<feBlend mode="normal" in2="BackgroundImageFix" result="effect1_dropShadow_739_51"/>
<feBlend mode="normal" in="SourceGraphic" in2="effect1_dropShadow_739_51" result="shape"/>
</filter>
<filter id="filter11_d_739_51" x="505.766" y="0.375" width="59.7184" height="125.25" filterUnits="userSpaceOnUse" color-interpolation-filters="sRGB">
<feFlood flood-opacity="0" result="BackgroundImageFix"/>
<feColorMatrix in="SourceAlpha" type="matrix" values="0 0 0 0 0 0 0 0 0 0 0 0 0 0 0 0 0 0 127 0" result="hardAlpha"/>
<feOffset dx="3" dy="3"/>
<feComposite in2="hardAlpha" operator="out"/>
<feColorMatrix type="matrix" values="0 0 0 0 0 0 0 0 0 0 0 0 0 0 0 0 0 0 0.16 0"/>
<feBlend mode="normal" in2="BackgroundImageFix" result="effect1_dropShadow_739_51"/>
<feBlend mode="normal" in="SourceGraphic" in2="effect1_dropShadow_739_51" result="shape"/>
</filter>
</defs>
</svg>
