<svg width="762" height="170" viewBox="0 0 762 170" fill="none" xmlns="http://www.w3.org/2000/svg">
<g filter="url(#filter0_d_703_2)">
<path d="M16.3536 17.2682C17.4538 7.43548 25.7676 0 35.6617 0H58.2764C69.862 0 78.8727 10.0751 77.5845 21.5889L63.6464 146.16C62.5462 155.993 54.2324 163.429 44.3383 163.429H21.7237C10.138 163.429 1.12729 153.353 2.41554 141.84L16.3536 17.2682Z" fill="#F9F9F9"/>
</g>
<g filter="url(#filter1_d_703_2)">
<path d="M78.0679 17.2682C79.1681 7.43548 87.4819 0 97.376 0H119.991C131.576 0 140.587 10.0751 139.299 21.5889L125.361 146.16C124.261 155.993 115.947 163.429 106.053 163.429H83.4379C71.8523 163.429 62.8416 153.353 64.1298 141.84L78.0679 17.2682Z" fill="#ACDEDE"/>
</g>
<g filter="url(#filter2_d_703_2)">
<path d="M139.782 17.2682C140.882 7.43548 149.196 0 159.09 0H181.705C193.291 0 202.301 10.0751 201.013 21.5889L187.075 146.16C185.975 155.993 177.661 163.429 167.767 163.429H145.152C133.567 163.429 124.556 153.353 125.844 141.84L139.782 17.2682Z" fill="#F9F9F9"/>
</g>
<g filter="url(#filter3_d_703_2)">
<path d="M201.496 17.2682C202.597 7.43548 210.91 0 220.805 0H243.419C255.005 0 264.016 10.0751 262.727 21.5889L248.789 146.16C247.689 155.993 239.375 163.429 229.481 163.429H206.866C195.281 163.429 186.27 153.353 187.558 141.84L201.496 17.2682Z" fill="#ACDEDE"/>
</g>
<g filter="url(#filter4_d_703_2)">
<path d="M263.211 17.2682C264.311 7.43548 272.625 0 282.519 0H305.134C316.719 0 325.73 10.0751 324.442 21.5889L310.504 146.16C309.403 155.993 301.09 163.429 291.195 163.429H268.581C256.995 163.429 247.984 153.353 249.273 141.84L263.211 17.2682Z" fill="#F9F9F9"/>
</g>
<g filter="url(#filter5_d_703_2)">
<path d="M324.925 17.2682C326.025 7.43548 334.339 0 344.233 0H366.848C378.433 0 387.444 10.0751 386.156 21.5889L372.218 146.16C371.118 155.993 362.804 163.429 352.91 163.429H330.295C318.709 163.429 309.699 153.353 310.987 141.84L324.925 17.2682Z" fill="#ACDEDE"/>
</g>
<g filter="url(#filter6_d_703_2)">
<path d="M386.639 17.2682C387.739 7.43548 396.053 0 405.947 0H428.562C440.148 0 449.158 10.0751 447.87 21.5889L433.932 146.16C432.832 155.993 424.518 163.429 414.624 163.429H392.009C380.424 163.429 371.413 153.353 372.701 141.84L386.639 17.2682Z" fill="#F9F9F9"/>
</g>
<g filter="url(#filter7_d_703_2)">
<path d="M448.354 17.2682C449.454 7.43548 457.768 0 467.662 0H490.276C501.862 0 510.873 10.0751 509.584 21.5889L495.646 146.16C494.546 155.993 486.232 163.429 476.338 163.429H453.724C442.138 163.429 433.127 153.353 434.416 141.84L448.354 17.2682Z" fill="#ACDEDE"/>
</g>
<g filter="url(#filter8_d_703_2)">
<path d="M510.064 17.2682C511.164 7.43548 519.478 0 529.372 0H551.986C563.572 0 572.583 10.0751 571.294 21.5889L557.356 146.16C556.256 155.993 547.942 163.429 538.048 163.429H515.434C503.848 163.429 494.837 153.353 496.126 141.84L510.064 17.2682Z" fill="#F9F9F9"/>
</g>
<g filter="url(#filter9_d_703_2)">
<path d="M571.778 17.2682C572.878 7.43548 581.192 0 591.086 0H613.701C625.286 0 634.297 10.0751 633.009 21.5889L619.071 146.16C617.97 155.993 609.657 163.429 599.763 163.429H577.148C565.562 163.429 556.551 153.353 557.84 141.84L571.778 17.2682Z" fill="#ACDEDE"/>
</g>
<g filter="url(#filter10_d_703_2)">
<path d="M633.492 17.2682C634.592 7.43548 642.906 0 652.8 0H675.415C687 0 696.011 10.0751 694.723 21.5889L680.785 146.16C679.685 155.993 671.371 163.429 661.477 163.429H638.862C627.276 163.429 618.266 153.353 619.554 141.84L633.492 17.2682Z" fill="#F9F9F9"/>
</g>
<g filter="url(#filter11_d_703_2)">
<path d="M695.206 17.2682C696.307 7.43548 704.62 0 714.514 0H737.129C748.715 0 757.725 10.0751 756.437 21.5889L742.499 146.16C741.399 155.993 733.085 163.429 723.191 163.429H700.576C688.991 163.429 679.98 153.353 681.268 141.84L695.206 17.2682Z" fill="#ACDEDE"/>
</g>
<defs>
<filter id="filter0_d_703_2" x="2.29272" y="0" width="79.986" height="169.143" filterUnits="userSpaceOnUse" color-interpolation-filters="sRGB">
<feFlood flood-opacity="0" result="BackgroundImageFix"/>
<feColorMatrix in="SourceAlpha" type="matrix" values="0 0 0 0 0 0 0 0 0 0 0 0 0 0 0 0 0 0 127 0" result="hardAlpha"/>
<feOffset dx="4.57143" dy="5.71429"/>
<feComposite in2="hardAlpha" operator="out"/>
<feColorMatrix type="matrix" values="0 0 0 0 0 0 0 0 0 0 0 0 0 0 0 0 0 0 0.15 0"/>
<feBlend mode="normal" in2="BackgroundImageFix" result="effect1_dropShadow_703_2"/>
<feBlend mode="normal" in="SourceGraphic" in2="effect1_dropShadow_703_2" result="shape"/>
</filter>
<filter id="filter1_d_703_2" x="64.007" y="0" width="79.986" height="169.143" filterUnits="userSpaceOnUse" color-interpolation-filters="sRGB">
<feFlood flood-opacity="0" result="BackgroundImageFix"/>
<feColorMatrix in="SourceAlpha" type="matrix" values="0 0 0 0 0 0 0 0 0 0 0 0 0 0 0 0 0 0 127 0" result="hardAlpha"/>
<feOffset dx="4.57143" dy="5.71429"/>
<feComposite in2="hardAlpha" operator="out"/>
<feColorMatrix type="matrix" values="0 0 0 0 0 0 0 0 0 0 0 0 0 0 0 0 0 0 0.15 0"/>
<feBlend mode="normal" in2="BackgroundImageFix" result="effect1_dropShadow_703_2"/>
<feBlend mode="normal" in="SourceGraphic" in2="effect1_dropShadow_703_2" result="shape"/>
</filter>
<filter id="filter2_d_703_2" x="125.721" y="0" width="79.986" height="169.143" filterUnits="userSpaceOnUse" color-interpolation-filters="sRGB">
<feFlood flood-opacity="0" result="BackgroundImageFix"/>
<feColorMatrix in="SourceAlpha" type="matrix" values="0 0 0 0 0 0 0 0 0 0 0 0 0 0 0 0 0 0 127 0" result="hardAlpha"/>
<feOffset dx="4.57143" dy="5.71429"/>
<feComposite in2="hardAlpha" operator="out"/>
<feColorMatrix type="matrix" values="0 0 0 0 0 0 0 0 0 0 0 0 0 0 0 0 0 0 0.15 0"/>
<feBlend mode="normal" in2="BackgroundImageFix" result="effect1_dropShadow_703_2"/>
<feBlend mode="normal" in="SourceGraphic" in2="effect1_dropShadow_703_2" result="shape"/>
</filter>
<filter id="filter3_d_703_2" x="187.436" y="0" width="79.986" height="169.143" filterUnits="userSpaceOnUse" color-interpolation-filters="sRGB">
<feFlood flood-opacity="0" result="BackgroundImageFix"/>
<feColorMatrix in="SourceAlpha" type="matrix" values="0 0 0 0 0 0 0 0 0 0 0 0 0 0 0 0 0 0 127 0" result="hardAlpha"/>
<feOffset dx="4.57143" dy="5.71429"/>
<feComposite in2="hardAlpha" operator="out"/>
<feColorMatrix type="matrix" values="0 0 0 0 0 0 0 0 0 0 0 0 0 0 0 0 0 0 0.15 0"/>
<feBlend mode="normal" in2="BackgroundImageFix" result="effect1_dropShadow_703_2"/>
<feBlend mode="normal" in="SourceGraphic" in2="effect1_dropShadow_703_2" result="shape"/>
</filter>
<filter id="filter4_d_703_2" x="249.15" y="0" width="79.986" height="169.143" filterUnits="userSpaceOnUse" color-interpolation-filters="sRGB">
<feFlood flood-opacity="0" result="BackgroundImageFix"/>
<feColorMatrix in="SourceAlpha" type="matrix" values="0 0 0 0 0 0 0 0 0 0 0 0 0 0 0 0 0 0 127 0" result="hardAlpha"/>
<feOffset dx="4.57143" dy="5.71429"/>
<feComposite in2="hardAlpha" operator="out"/>
<feColorMatrix type="matrix" values="0 0 0 0 0 0 0 0 0 0 0 0 0 0 0 0 0 0 0.15 0"/>
<feBlend mode="normal" in2="BackgroundImageFix" result="effect1_dropShadow_703_2"/>
<feBlend mode="normal" in="SourceGraphic" in2="effect1_dropShadow_703_2" result="shape"/>
</filter>
<filter id="filter5_d_703_2" x="310.864" y="0" width="79.986" height="169.143" filterUnits="userSpaceOnUse" color-interpolation-filters="sRGB">
<feFlood flood-opacity="0" result="BackgroundImageFix"/>
<feColorMatrix in="SourceAlpha" type="matrix" values="0 0 0 0 0 0 0 0 0 0 0 0 0 0 0 0 0 0 127 0" result="hardAlpha"/>
<feOffset dx="4.57143" dy="5.71429"/>
<feComposite in2="hardAlpha" operator="out"/>
<feColorMatrix type="matrix" values="0 0 0 0 0 0 0 0 0 0 0 0 0 0 0 0 0 0 0.15 0"/>
<feBlend mode="normal" in2="BackgroundImageFix" result="effect1_dropShadow_703_2"/>
<feBlend mode="normal" in="SourceGraphic" in2="effect1_dropShadow_703_2" result="shape"/>
</filter>
<filter id="filter6_d_703_2" x="372.578" y="0" width="79.986" height="169.143" filterUnits="userSpaceOnUse" color-interpolation-filters="sRGB">
<feFlood flood-opacity="0" result="BackgroundImageFix"/>
<feColorMatrix in="SourceAlpha" type="matrix" values="0 0 0 0 0 0 0 0 0 0 0 0 0 0 0 0 0 0 127 0" result="hardAlpha"/>
<feOffset dx="4.57143" dy="5.71429"/>
<feComposite in2="hardAlpha" operator="out"/>
<feColorMatrix type="matrix" values="0 0 0 0 0 0 0 0 0 0 0 0 0 0 0 0 0 0 0.15 0"/>
<feBlend mode="normal" in2="BackgroundImageFix" result="effect1_dropShadow_703_2"/>
<feBlend mode="normal" in="SourceGraphic" in2="effect1_dropShadow_703_2" result="shape"/>
</filter>
<filter id="filter7_d_703_2" x="434.293" y="0" width="79.986" height="169.143" filterUnits="userSpaceOnUse" color-interpolation-filters="sRGB">
<feFlood flood-opacity="0" result="BackgroundImageFix"/>
<feColorMatrix in="SourceAlpha" type="matrix" values="0 0 0 0 0 0 0 0 0 0 0 0 0 0 0 0 0 0 127 0" result="hardAlpha"/>
<feOffset dx="4.57143" dy="5.71429"/>
<feComposite in2="hardAlpha" operator="out"/>
<feColorMatrix type="matrix" values="0 0 0 0 0 0 0 0 0 0 0 0 0 0 0 0 0 0 0.15 0"/>
<feBlend mode="normal" in2="BackgroundImageFix" result="effect1_dropShadow_703_2"/>
<feBlend mode="normal" in="SourceGraphic" in2="effect1_dropShadow_703_2" result="shape"/>
</filter>
<filter id="filter8_d_703_2" x="496.003" y="0" width="79.986" height="169.143" filterUnits="userSpaceOnUse" color-interpolation-filters="sRGB">
<feFlood flood-opacity="0" result="BackgroundImageFix"/>
<feColorMatrix in="SourceAlpha" type="matrix" values="0 0 0 0 0 0 0 0 0 0 0 0 0 0 0 0 0 0 127 0" result="hardAlpha"/>
<feOffset dx="4.57143" dy="5.71429"/>
<feComposite in2="hardAlpha" operator="out"/>
<feColorMatrix type="matrix" values="0 0 0 0 0 0 0 0 0 0 0 0 0 0 0 0 0 0 0.15 0"/>
<feBlend mode="normal" in2="BackgroundImageFix" result="effect1_dropShadow_703_2"/>
<feBlend mode="normal" in="SourceGraphic" in2="effect1_dropShadow_703_2" result="shape"/>
</filter>
<filter id="filter9_d_703_2" x="557.717" y="0" width="79.986" height="169.143" filterUnits="userSpaceOnUse" color-interpolation-filters="sRGB">
<feFlood flood-opacity="0" result="BackgroundImageFix"/>
<feColorMatrix in="SourceAlpha" type="matrix" values="0 0 0 0 0 0 0 0 0 0 0 0 0 0 0 0 0 0 127 0" result="hardAlpha"/>
<feOffset dx="4.57143" dy="5.71429"/>
<feComposite in2="hardAlpha" operator="out"/>
<feColorMatrix type="matrix" values="0 0 0 0 0 0 0 0 0 0 0 0 0 0 0 0 0 0 0.15 0"/>
<feBlend mode="normal" in2="BackgroundImageFix" result="effect1_dropShadow_703_2"/>
<feBlend mode="normal" in="SourceGraphic" in2="effect1_dropShadow_703_2" result="shape"/>
</filter>
<filter id="filter10_d_703_2" x="619.431" y="0" width="79.986" height="169.143" filterUnits="userSpaceOnUse" color-interpolation-filters="sRGB">
<feFlood flood-opacity="0" result="BackgroundImageFix"/>
<feColorMatrix in="SourceAlpha" type="matrix" values="0 0 0 0 0 0 0 0 0 0 0 0 0 0 0 0 0 0 127 0" result="hardAlpha"/>
<feOffset dx="4.57143" dy="5.71429"/>
<feComposite in2="hardAlpha" operator="out"/>
<feColorMatrix type="matrix" values="0 0 0 0 0 0 0 0 0 0 0 0 0 0 0 0 0 0 0.15 0"/>
<feBlend mode="normal" in2="BackgroundImageFix" result="effect1_dropShadow_703_2"/>
<feBlend mode="normal" in="SourceGraphic" in2="effect1_dropShadow_703_2" result="shape"/>
</filter>
<filter id="filter11_d_703_2" x="681.146" y="0" width="79.986" height="169.143" filterUnits="userSpaceOnUse" color-interpolation-filters="sRGB">
<feFlood flood-opacity="0" result="BackgroundImageFix"/>
<feColorMatrix in="SourceAlpha" type="matrix" values="0 0 0 0 0 0 0 0 0 0 0 0 0 0 0 0 0 0 127 0" result="hardAlpha"/>
<feOffset dx="4.57143" dy="5.71429"/>
<feComposite in2="hardAlpha" operator="out"/>
<feColorMatrix type="matrix" values="0 0 0 0 0 0 0 0 0 0 0 0 0 0 0 0 0 0 0.15 0"/>
<feBlend mode="normal" in2="BackgroundImageFix" result="effect1_dropShadow_703_2"/>
<feBlend mode="normal" in="SourceGraphic" in2="effect1_dropShadow_703_2" result="shape"/>
</filter>
</defs>
</svg>
