<svg width="512" height="717" viewBox="0 0 512 717" fill="none" xmlns="http://www.w3.org/2000/svg">
<path d="M272.951 677.067C268.497 690.071 250.105 690.071 245.392 677.067L7.05548 19.467C3.6107 9.96239 10.5636 0.000110496 20.6418 0.000110496L484.238 0.000110496C494.316 0.000110496 501.467 9.96239 498.211 19.467L272.951 677.067Z" fill="#DFB38E"/>
<mask id="mask0_456_1424" style="mask-type:alpha" maskUnits="userSpaceOnUse" x="6" y="0" width="494" height="687">
<path d="M272.951 677.067C268.497 690.071 250.105 690.071 245.392 677.067L7.05548 19.467C3.6107 9.96239 10.5636 0.000110496 20.6418 0.000110496L484.238 0.000110496C494.316 0.000110496 501.467 9.96239 498.211 19.467L272.951 677.067Z" fill="#C09775"/>
</mask>
<g mask="url(#mask0_456_1424)">
<line y1="-12.1757" x2="603.419" y2="-12.1757" transform="matrix(1 0 0.00896301 0.99996 -51.9344 85.7422)" stroke="#9C7351" stroke-opacity="0.39" stroke-width="24.3514"/>
<line y1="-12.1757" x2="603.419" y2="-12.1757" transform="matrix(1 0 0.00896301 0.99996 -48.2758 134.448)" stroke="#9C7351" stroke-opacity="0.39" stroke-width="24.3514"/>
<rect width="690.736" height="510.624" transform="matrix(0.840976 0.541072 -0.496844 0.86784 120.592 146.689)" fill="#DE7171"/>
</g>
</svg>
