<svg width="512" height="717" viewBox="0 0 512 717" fill="none" xmlns="http://www.w3.org/2000/svg">
<path d="M281.557 651.945C274.24 673.306 244.029 673.306 236.287 651.945L11.5894 31.9767C5.93095 16.3643 17.3519 0.000103736 33.9066 0.000103736L470.973 0.000103736C487.528 0.000103736 499.274 16.3644 493.926 31.9768L281.557 651.945Z" fill="#DFB38E"/>
<mask id="mask0_456_1424" style="mask-type:alpha" maskUnits="userSpaceOnUse" x="10" y="0" width="486" height="668">
<path d="M281.557 651.945C274.24 673.306 244.029 673.306 236.287 651.945L11.5894 31.9767C5.93095 16.3643 17.3519 0.000103736 33.9066 0.000103736L470.973 0.000103736C487.528 0.000103736 499.274 16.3644 493.926 31.9768L281.557 651.945Z" fill="#C09775"/>
</mask>
<g mask="url(#mask0_456_1424)">
<line y1="-12.1757" x2="603.419" y2="-12.1757" transform="matrix(1 0 0.00896301 0.99996 -51.9344 85.7422)" stroke="#9C7351" stroke-opacity="0.39" stroke-width="24.3514"/>
<line y1="-12.1757" x2="603.419" y2="-12.1757" transform="matrix(1 0 0.00896301 0.99996 -48.2758 134.448)" stroke="#9C7351" stroke-opacity="0.39" stroke-width="24.3514"/>
<rect width="690.736" height="510.624" transform="matrix(0.840976 0.541072 -0.496844 0.86784 120.592 146.689)" fill="#DE7171"/>
</g>
</svg>
