<svg width="192" height="269" viewBox="0 0 192 269" fill="none" xmlns="http://www.w3.org/2000/svg">
<path d="M102.33 254.027C100.663 258.894 93.7806 258.894 92.0168 254.027L2.82705 7.94137C1.53795 4.38458 4.13985 0.656518 7.9113 0.656518L181.397 0.656518C185.169 0.656518 187.845 4.38459 186.626 7.94138L102.33 254.027Z" fill="#DFB38E"/>
<mask id="mask0_456_1424" style="mask-type:alpha" maskUnits="userSpaceOnUse" x="2" y="0" width="185" height="258">
<path d="M102.33 254.027C100.663 258.894 93.7806 258.894 92.0168 254.027L2.82705 7.94137C1.53795 4.38458 4.13985 0.656518 7.9113 0.656518L181.397 0.656518C185.169 0.656518 187.845 4.38459 186.626 7.94138L102.33 254.027Z" fill="#C09775"/>
</mask>
<g mask="url(#mask0_456_1424)">
<line y1="-4.55636" x2="225.81" y2="-4.55636" transform="matrix(1 0 0.00896301 0.99996 -19.248 32.7428)" stroke="#9C7351" stroke-width="9.11272"/>
<line y1="-4.55636" x2="225.81" y2="-4.55636" transform="matrix(1 0 0.00896301 0.99996 -17.8789 50.9693)" stroke="#9C7351" stroke-width="9.11272"/>
<rect width="258.486" height="191.085" transform="matrix(0.840976 0.541072 -0.496844 0.86784 45.3146 55.55)" fill="#DE7171"/>
</g>
</svg>
