<svg width="513" height="717" viewBox="0 0 513 717" fill="none" xmlns="http://www.w3.org/2000/svg">
<path d="M273.938 677.644C269.483 690.648 251.092 690.648 246.378 677.644L8.04204 20.0435C4.59726 10.539 11.5501 0.576642 21.6284 0.576642L485.224 0.576642C495.302 0.576642 502.453 10.5389 499.198 20.0435L273.938 677.644Z" fill="#DFB38E"/>
<mask id="mask0_456_1424" style="mask-type:alpha" maskUnits="userSpaceOnUse" x="7" y="0" width="493" height="688">
<path d="M273.938 677.644C269.483 690.648 251.092 690.648 246.378 677.644L8.04204 20.0435C4.59726 10.539 11.5501 0.576642 21.6284 0.576642L485.224 0.576642C495.302 0.576642 502.453 10.5389 499.198 20.0435L273.938 677.644Z" fill="#C09775"/>
</mask>
<g mask="url(#mask0_456_1424)">
<line y1="-12.1757" x2="603.419" y2="-12.1757" transform="matrix(1 0 0.00896301 0.99996 -50.9478 86.3188)" stroke="#9C7351" stroke-width="24.3514"/>
<line y1="-12.1757" x2="603.419" y2="-12.1757" transform="matrix(1 0 0.00896301 0.99996 -47.2892 135.024)" stroke="#9C7351" stroke-width="24.3514"/>
<rect width="690.736" height="510.624" transform="matrix(0.840976 0.541072 -0.496844 0.86784 121.579 147.265)" fill="#DE7171"/>
</g>
</svg>
