<svg width="26" height="25" viewBox="0 0 26 25" fill="none" xmlns="http://www.w3.org/2000/svg">
<path d="M16.6964 9.96826L16.6965 9.96841L22.0426 18.25H4.95588L7.86358 13.7199L7.86367 13.7198C7.94729 13.5895 8.08129 13.5123 8.22171 13.5022L8.22267 13.5021C8.36141 13.4919 8.50313 13.5481 8.60352 13.6643L10.7775 16.1835L11.4334 16.9437L11.9762 16.0991L15.9158 9.96939L15.9159 9.96917C16.0061 9.82879 16.1539 9.75063 16.3061 9.75C16.4582 9.75028 16.606 9.82807 16.6964 9.96826Z" stroke="#BEE2E2" stroke-width="1.5"/>
<path d="M9.16501 10.5981C10.2495 10.5981 11.1282 9.71941 11.1282 8.63503C11.1282 7.55063 10.2494 6.67188 9.16501 6.67188C8.08051 6.67188 7.20143 7.55075 7.20142 8.635L9.16501 10.5981ZM9.16501 10.5981C8.08052 10.5981 7.20147 9.71927 7.20142 8.63503L9.16501 10.5981Z" stroke="#BEE2E2" stroke-width="1.5"/>
<path fill-rule="evenodd" clip-rule="evenodd" d="M24.1429 1.38889H1.85714C1.60073 1.38889 1.39286 1.59616 1.39286 1.85185V23.1481C1.39286 23.4038 1.60072 23.6111 1.85714 23.6111H24.1429C24.3993 23.6111 24.6071 23.4038 24.6071 23.1481V1.85185C24.6071 1.59617 24.3993 1.38889 24.1429 1.38889ZM1.85714 0C0.831471 0 0 0.829103 0 1.85185V23.1481C0 24.1709 0.831472 25 1.85714 25H24.1429C25.1685 25 26 24.1709 26 23.1481V1.85185C26 0.829102 25.1685 0 24.1429 0H1.85714Z" fill="#BEE2E2"/>
</svg>
