<svg width="26" height="25" viewBox="0 0 26 25" fill="none" xmlns="http://www.w3.org/2000/svg">
<path d="M16.6964 9.96826L16.6965 9.96841L22.0426 18.25H4.95588L7.86358 13.7199L7.86367 13.7198C7.94729 13.5895 8.08129 13.5123 8.22171 13.5022L8.22267 13.5021C8.36141 13.4919 8.50313 13.5481 8.60352 13.6643L10.7775 16.1835L11.4334 16.9437L11.9762 16.0991L15.9158 9.96939L15.9159 9.96917C16.0061 9.82879 16.1539 9.75063 16.3061 9.75C16.4582 9.75028 16.606 9.82807 16.6964 9.96826Z" stroke="#9DD0D0" stroke-width="1.5"/>
<path d="M9.16501 10.5981C10.2495 10.5981 11.1282 9.71941 11.1282 8.63503C11.1282 7.55063 10.2494 6.67188 9.16501 6.67188C8.08051 6.67188 7.20143 7.55075 7.20142 8.635L9.16501 10.5981ZM9.16501 10.5981C8.08052 10.5981 7.20147 9.71927 7.20142 8.63503L9.16501 10.5981Z" stroke="#9DD0D0" stroke-width="1.5"/>
<mask id="path-3-inside-1_512_1466" fill="white">
<path fill-rule="evenodd" clip-rule="evenodd" d="M24.1429 1.38889H1.85714C1.60073 1.38889 1.39286 1.59616 1.39286 1.85185V23.1481C1.39286 23.4038 1.60072 23.6111 1.85714 23.6111H24.1429C24.3993 23.6111 24.6071 23.4038 24.6071 23.1481V1.85185C24.6071 1.59617 24.3993 1.38889 24.1429 1.38889ZM1.85714 0C0.831471 0 0 0.829103 0 1.85185V23.1481C0 24.1709 0.831472 25 1.85714 25H24.1429C25.1685 25 26 24.1709 26 23.1481V1.85185C26 0.829102 25.1685 0 24.1429 0H1.85714Z"/>
</mask>
<path d="M1.85714 2.88889H24.1429V-0.111111H1.85714V2.88889ZM2.89286 1.85185C2.89286 2.42862 2.42512 2.88889 1.85714 2.88889V-0.111111C0.776336 -0.111111 -0.107143 0.763706 -0.107143 1.85185H2.89286ZM2.89286 23.1481V1.85185H-0.107143V23.1481H2.89286ZM1.85714 22.1111C2.42511 22.1111 2.89286 22.5714 2.89286 23.1481H-0.107143C-0.107143 24.2363 0.776336 25.1111 1.85714 25.1111V22.1111ZM24.1429 22.1111H1.85714V25.1111H24.1429V22.1111ZM23.1071 23.1481C23.1071 22.5714 23.5749 22.1111 24.1429 22.1111V25.1111C25.2237 25.1111 26.1071 24.2363 26.1071 23.1481H23.1071ZM23.1071 1.85185V23.1481H26.1071V1.85185H23.1071ZM24.1429 2.88889C23.5749 2.88889 23.1071 2.42862 23.1071 1.85185H26.1071C26.1071 0.763707 25.2237 -0.111111 24.1429 -0.111111V2.88889ZM1.5 1.85185C1.5 1.66156 1.65586 1.5 1.85714 1.5V-1.5C0.00708139 -1.5 -1.5 -0.00335597 -1.5 1.85185H1.5ZM1.5 23.1481V1.85185H-1.5V23.1481H1.5ZM1.85714 23.5C1.65586 23.5 1.5 23.3384 1.5 23.1481H-1.5C-1.5 25.0034 0.00708363 26.5 1.85714 26.5V23.5ZM24.1429 23.5H1.85714V26.5H24.1429V23.5ZM24.5 23.1481C24.5 23.3384 24.3441 23.5 24.1429 23.5V26.5C25.9929 26.5 27.5 25.0034 27.5 23.1481H24.5ZM24.5 1.85185V23.1481H27.5V1.85185H24.5ZM24.1429 1.5C24.3441 1.5 24.5 1.66156 24.5 1.85185H27.5C27.5 -0.00335718 25.9929 -1.5 24.1429 -1.5V1.5ZM1.85714 1.5H24.1429V-1.5H1.85714V1.5Z" fill="#9DD0D0" mask="url(#path-3-inside-1_512_1466)"/>
</svg>
