<svg width="29" height="22" viewBox="0 0 29 22" fill="none" xmlns="http://www.w3.org/2000/svg">
<path d="M2 9.58337C1.30964 9.58337 0.75 9.02373 0.75 8.33337V2.33337C0.75 1.64302 1.30964 1.08337 2 1.08337H6.33333C7.02369 1.08337 7.58333 1.64302 7.58333 2.33337V8.33337C7.58333 9.02373 7.02369 9.58337 6.33333 9.58337H2ZM2 21.25C1.30964 21.25 0.75 20.6904 0.75 20V14C0.75 13.3097 1.30964 12.75 2 12.75H6.33333C7.02369 12.75 7.58333 13.3097 7.58333 14V20C7.58333 20.6904 7.02369 21.25 6.33333 21.25H2ZM12 21.25C11.3096 21.25 10.75 20.6904 10.75 20V14C10.75 13.3097 11.3096 12.75 12 12.75H16.3333C17.0237 12.75 17.5833 13.3097 17.5833 14V20C17.5833 20.6904 17.0237 21.25 16.3333 21.25H12ZM22 21.25C21.3096 21.25 20.75 20.6904 20.75 20V14C20.75 13.3097 21.3096 12.75 22 12.75H26.3333C27.0237 12.75 27.5833 13.3097 27.5833 14V20C27.5833 20.6904 27.0237 21.25 26.3333 21.25H22ZM12 9.58337C11.3096 9.58337 10.75 9.02373 10.75 8.33337V2.33337C10.75 1.64302 11.3096 1.08337 12 1.08337H16.3333C17.0237 1.08337 17.5833 1.64302 17.5833 2.33337V8.33337C17.5833 9.02373 17.0237 9.58337 16.3333 9.58337H12ZM20.75 2.33337C20.75 1.64302 21.3096 1.08337 22 1.08337H26.3333C27.0237 1.08337 27.5833 1.64302 27.5833 2.33337V8.33337C27.5833 9.02373 27.0237 9.58337 26.3333 9.58337H22C21.3096 9.58337 20.75 9.02373 20.75 8.33337V2.33337Z" stroke="#9DD0D0" stroke-width="1.5"/>
</svg>
