<svg width="29" height="22" viewBox="0 0 29 22" fill="none" xmlns="http://www.w3.org/2000/svg">
<path d="M2 9.50004C1.35567 9.50004 0.833333 8.97771 0.833333 8.33337V2.33337C0.833333 1.68904 1.35567 1.16671 2 1.16671H6.33333C6.97767 1.16671 7.5 1.68904 7.5 2.33337V8.33337C7.5 8.97771 6.97767 9.50004 6.33333 9.50004H2ZM2 21.1667C1.35567 21.1667 0.833333 20.6444 0.833333 20V14C0.833333 13.3557 1.35567 12.8334 2 12.8334H6.33333C6.97767 12.8334 7.5 13.3557 7.5 14V20C7.5 20.6444 6.97767 21.1667 6.33333 21.1667H2ZM12 21.1667C11.3557 21.1667 10.8333 20.6444 10.8333 20V14C10.8333 13.3557 11.3557 12.8334 12 12.8334H16.3333C16.9777 12.8334 17.5 13.3557 17.5 14V20C17.5 20.6444 16.9777 21.1667 16.3333 21.1667H12ZM22 21.1667C21.3557 21.1667 20.8333 20.6444 20.8333 20V14C20.8333 13.3557 21.3557 12.8334 22 12.8334H26.3333C26.9777 12.8334 27.5 13.3557 27.5 14V20C27.5 20.6444 26.9777 21.1667 26.3333 21.1667H22ZM12 9.50004C11.3557 9.50004 10.8333 8.97771 10.8333 8.33337V2.33337C10.8333 1.68904 11.3557 1.16671 12 1.16671H16.3333C16.9777 1.16671 17.5 1.68904 17.5 2.33337V8.33337C17.5 8.97771 16.9777 9.50004 16.3333 9.50004H12ZM20.8333 2.33337C20.8333 1.68904 21.3557 1.16671 22 1.16671H26.3333C26.9777 1.16671 27.5 1.68904 27.5 2.33337V8.33337C27.5 8.97771 26.9777 9.50004 26.3333 9.50004H22C21.3557 9.50004 20.8333 8.97771 20.8333 8.33337V2.33337Z" stroke="#BEE2E2" stroke-width="1.66667"/>
</svg>
