<svg width="79" height="226" viewBox="0 0 79 226" fill="none" xmlns="http://www.w3.org/2000/svg">
<path d="M74.5369 41.3186C73.2803 30.9518 68.3378 23.895 65.9503 20.5738C64.3826 18.3895 59.5239 11.7584 52.2118 8.01153C48.466 6.09051 45.534 5.67046 41.4412 5.088C41.0762 5.03759 40.5855 4.97599 40.0111 5.00959C39.4427 4.97599 38.946 5.03759 38.581 5.088C34.4882 5.67046 31.5562 6.09051 27.8104 8.01153C20.5043 11.7584 15.6396 18.3951 14.0719 20.5738C11.6844 23.895 6.74188 30.9518 5.48531 41.3186C4.94079 45.7935 4.0971 52.7887 7.82492 60.1648C11.3194 67.0704 17.5304 71.7413 19.0623 72.8782C19.894 73.4887 23.7235 76.2666 28.8934 80.1815C31.0296 81.7945 33.1897 83.4746 34.3565 86.3198C35.2301 88.4424 35.1643 90.2906 35.1344 91.1419C34.8472 99.8565 35.1165 108.582 34.8233 117.297C34.6378 122.825 34.913 122.242 34.8233 129.568C34.6856 141.245 34.4942 156.978 30.9219 175.006C27.236 193.583 27.1761 193.852 27.1761 193.852C25.3391 201.962 24.1544 205.838 25.6144 211.237C26.129 213.141 27.5531 217.397 31.4245 221.077C32.0528 223.121 32.9683 224.538 34.2488 225.115C36.0439 225.927 38.1502 225.994 38.1502 225.994C38.7904 226.017 39.4068 225.966 39.9991 225.882C40.5915 225.972 41.2078 226.017 41.8481 225.994C41.8481 225.994 43.9543 225.927 45.7495 225.115C47.03 224.538 47.9455 223.121 48.5737 221.077C52.4392 217.397 53.8693 213.141 54.3839 211.237C55.8439 205.832 54.6651 201.956 52.8222 193.852C52.8222 193.852 52.7623 193.583 49.0764 175.006C45.4981 156.978 45.3126 141.245 45.175 129.568C45.0853 122.242 45.3605 122.825 45.175 117.297C44.8758 108.582 45.1511 99.8565 44.8639 91.1419C44.8339 90.2906 44.7741 88.448 45.6417 86.3198C46.8086 83.4746 48.9746 81.8001 51.1048 80.1815C56.2747 76.2666 60.1103 73.4887 60.936 72.8782C62.4678 71.7469 68.6789 67.0704 72.1733 60.1648C75.9072 52.7887 75.0575 45.7935 74.513 41.3186H74.5369Z" fill="#DCDCDC"/>
<circle cx="39.5" cy="39.5" r="39.5" fill="#DCDCDC"/>
<g filter="url(#filter0_ii_456_1455)">
<ellipse cx="40" cy="39.5" rx="32" ry="31.5" fill="#D2D2D2"/>
</g>
<defs>
<filter id="filter0_ii_456_1455" x="8" y="8" width="64" height="63" filterUnits="userSpaceOnUse" color-interpolation-filters="sRGB">
<feFlood flood-opacity="0" result="BackgroundImageFix"/>
<feBlend mode="normal" in="SourceGraphic" in2="BackgroundImageFix" result="shape"/>
<feColorMatrix in="SourceAlpha" type="matrix" values="0 0 0 0 0 0 0 0 0 0 0 0 0 0 0 0 0 0 127 0" result="hardAlpha"/>
<feOffset dx="5" dy="8"/>
<feComposite in2="hardAlpha" operator="arithmetic" k2="-1" k3="1"/>
<feColorMatrix type="matrix" values="0 0 0 0 0.675 0 0 0 0 0.675 0 0 0 0 0.675 0 0 0 0.42 0"/>
<feBlend mode="normal" in2="shape" result="effect1_innerShadow_456_1455"/>
<feColorMatrix in="SourceAlpha" type="matrix" values="0 0 0 0 0 0 0 0 0 0 0 0 0 0 0 0 0 0 127 0" result="hardAlpha"/>
<feOffset dx="-1" dy="-1"/>
<feComposite in2="hardAlpha" operator="arithmetic" k2="-1" k3="1"/>
<feColorMatrix type="matrix" values="0 0 0 0 1 0 0 0 0 1 0 0 0 0 1 0 0 0 0.53 0"/>
<feBlend mode="normal" in2="effect1_innerShadow_456_1455" result="effect2_innerShadow_456_1455"/>
</filter>
</defs>
</svg>
